<svg viewBox="0 0 600.0 450.0" width="100%" height="100%" xmlns="http://www.w3.org/2000/svg">
<defs>
  <pattern id="grid" width="15" height="15" patternUnits="userSpaceOnUse">
    <path d="M 15 0 L 0 0 0 15" fill="none" stroke="#e2e8f0" stroke-width="0.5"/>
  </pattern>
</defs>
<rect width="600.0" height="450.0" fill="#f8fafc"/>
<rect x="75" y="75" width="450.0" height="300.0" fill="url(#grid)"/>
<rect x="75" y="75" width="450.0" height="300.0" fill="none" stroke="#0f172a" stroke-width="8"/>
<rect x="75.0" y="75.0" width="147.0" height="97.05" fill="#ffffff" stroke="#334155" stroke-width="4"/>
<rect x="133.5" y="169.05" width="30" height="6" fill="#38bdf8" stroke="#0284c7" stroke-width="1"/>
<rect x="218.0" y="85.0" width="8" height="24" fill="#ffffff"/>
<path d="M 222.0 85.0 A 24 24 0 0 1 246.0 109.0 L 222.0 109.0 Z" fill="none" stroke="#94a3b8" stroke-width="1"/>
<text x="148.5" y="119.525" font-family="Space Grotesk, sans-serif" font-size="12" font-weight="700" fill="#0f172a" text-anchor="middle">READING HALL</text>
<text x="148.5" y="135.525" font-family="Inter, sans-serif" font-size="8" fill="#64748b" text-anchor="middle">9.8m x 6.5m</text>
<rect x="225.0" y="75.0" width="147.0" height="97.05" fill="#ffffff" stroke="#334155" stroke-width="4"/>
<rect x="283.5" y="169.05" width="30" height="6" fill="#38bdf8" stroke="#0284c7" stroke-width="1"/>
<rect x="368.0" y="85.0" width="8" height="24" fill="#ffffff"/>
<path d="M 372.0 85.0 A 24 24 0 0 1 396.0 109.0 L 372.0 109.0 Z" fill="none" stroke="#94a3b8" stroke-width="1"/>
<text x="298.5" y="119.525" font-family="Space Grotesk, sans-serif" font-size="12" font-weight="700" fill="#0f172a" text-anchor="middle">COMPUTER SECTION</text>
<text x="298.5" y="135.525" font-family="Inter, sans-serif" font-size="8" fill="#64748b" text-anchor="middle">9.8m x 6.5m</text>
<rect x="375.0" y="75.0" width="147.0" height="97.05" fill="#ffffff" stroke="#334155" stroke-width="4"/>
<rect x="433.5" y="169.05" width="30" height="6" fill="#38bdf8" stroke="#0284c7" stroke-width="1"/>
<rect x="518.0" y="85.0" width="8" height="24" fill="#ffffff"/>
<path d="M 522.0 85.0 A 24 24 0 0 1 546.0 109.0 L 522.0 109.0 Z" fill="none" stroke="#94a3b8" stroke-width="1"/>
<text x="448.5" y="119.525" font-family="Space Grotesk, sans-serif" font-size="12" font-weight="700" fill="#0f172a" text-anchor="middle">DISCUSSION ROOM</text>
<text x="448.5" y="135.525" font-family="Inter, sans-serif" font-size="8" fill="#64748b" text-anchor="middle">9.8m x 6.5m</text>
<rect x="75.0" y="175.05" width="147.0" height="97.05" fill="#ffffff" stroke="#334155" stroke-width="4"/>
<rect x="133.5" y="269.1" width="30" height="6" fill="#38bdf8" stroke="#0284c7" stroke-width="1"/>
<rect x="218.0" y="185.05" width="8" height="24" fill="#ffffff"/>
<path d="M 222.0 185.05 A 24 24 0 0 1 246.0 209.05 L 222.0 209.05 Z" fill="none" stroke="#94a3b8" stroke-width="1"/>
<text x="148.5" y="219.57500000000002" font-family="Space Grotesk, sans-serif" font-size="11" font-weight="700" fill="#0f172a" text-anchor="middle">DISCUSSION ROOM 2</text>
<text x="148.5" y="234.57500000000002" font-family="Inter, sans-serif" font-size="8" fill="#64748b" text-anchor="middle">9.8m x 6.5m</text>
<rect x="225.0" y="175.05" width="147.0" height="97.05" fill="#ffffff" stroke="#334155" stroke-width="4"/>
<rect x="283.5" y="269.1" width="30" height="6" fill="#38bdf8" stroke="#0284c7" stroke-width="1"/>
<rect x="368.0" y="185.05" width="8" height="24" fill="#ffffff"/>
<path d="M 372.0 185.05 A 24 24 0 0 1 396.0 209.05 L 372.0 209.05 Z" fill="none" stroke="#94a3b8" stroke-width="1"/>
<text x="298.5" y="219.57500000000002" font-family="Space Grotesk, sans-serif" font-size="12" font-weight="700" fill="#0f172a" text-anchor="middle">LIBRARIAN OFFICE</text>
<text x="298.5" y="235.57500000000002" font-family="Inter, sans-serif" font-size="8" fill="#64748b" text-anchor="middle">9.8m x 6.5m</text>
<rect x="375.0" y="175.05" width="147.0" height="97.05" fill="#ffffff" stroke="#334155" stroke-width="4"/>
<rect x="433.5" y="269.1" width="30" height="6" fill="#38bdf8" stroke="#0284c7" stroke-width="1"/>
<rect x="518.0" y="185.05" width="8" height="24" fill="#ffffff"/>
<path d="M 522.0 185.05 A 24 24 0 0 1 546.0 209.05 L 522.0 209.05 Z" fill="none" stroke="#94a3b8" stroke-width="1"/>
<text x="448.5" y="219.57500000000002" font-family="Space Grotesk, sans-serif" font-size="12" font-weight="700" fill="#0f172a" text-anchor="middle">STORAGE</text>
<text x="448.5" y="235.57500000000002" font-family="Inter, sans-serif" font-size="8" fill="#64748b" text-anchor="middle">9.8m x 6.5m</text>
<rect x="75.0" y="274.95" width="147.0" height="97.05" fill="#eff6ff" stroke="#334155" stroke-width="4"/>
<rect x="133.5" y="369.0" width="30" height="6" fill="#38bdf8" stroke="#0284c7" stroke-width="1"/>
<rect x="218.0" y="284.95" width="8" height="24" fill="#ffffff"/>
<path d="M 222.0 284.95 A 24 24 0 0 1 246.0 308.95 L 222.0 308.95 Z" fill="none" stroke="#94a3b8" stroke-width="1"/>
<text x="148.5" y="319.47499999999997" font-family="Space Grotesk, sans-serif" font-size="12" font-weight="700" fill="#0f172a" text-anchor="middle">TOILET</text>
<text x="148.5" y="335.47499999999997" font-family="Inter, sans-serif" font-size="8" fill="#64748b" text-anchor="middle">9.8m x 6.5m</text>
<text x="75" y="45" font-family="Space Grotesk, sans-serif" font-weight="700" font-size="18" fill="#0f172a">2D ARCHITECTURAL BLUEPRINT - LIBRARY</text>
<text x="75" y="62" font-family="Inter, sans-serif" font-size="11" fill="#64748b">Boundary Dimensions: 30.0m × 20.0m | Scale: 1:100</text>
</svg>