<svg viewBox="0 0 600.0 450.0" width="100%" height="100%" xmlns="http://www.w3.org/2000/svg">
<defs>
  <pattern id="grid" width="15" height="15" patternUnits="userSpaceOnUse">
    <path d="M 15 0 L 0 0 0 15" fill="none" stroke="#e2e8f0" stroke-width="0.5"/>
  </pattern>
</defs>
<rect width="600.0" height="450.0" fill="#f8fafc"/>
<rect x="75" y="75" width="450.0" height="300.0" fill="url(#grid)"/>
<rect x="75" y="75" width="450.0" height="300.0" fill="none" stroke="#0f172a" stroke-width="8"/>
<rect x="75.15" y="75.0" width="179.25" height="37.5" fill="#ffffff" stroke="#334155" stroke-width="4"/>
<rect x="149.775" y="109.5" width="30" height="6" fill="#38bdf8" stroke="#0284c7" stroke-width="1"/>
<rect x="250.4" y="85.0" width="8" height="24" fill="#ffffff"/>
<path d="M 254.4 85.0 A 24 24 0 0 1 278.4 109.0 L 254.4 109.0 Z" fill="none" stroke="#94a3b8" stroke-width="1"/>
<text x="164.775" y="89.75" font-family="Space Grotesk, sans-serif" font-size="12" font-weight="700" fill="#0f172a" text-anchor="middle">READING HALL</text>
<text x="164.775" y="105.75" font-family="Inter, sans-serif" font-size="8" fill="#64748b" text-anchor="middle">11.9m x 2.5m</text>
<rect x="325.05" y="75.0" width="177.89999999999998" height="37.5" fill="#ffffff" stroke="#334155" stroke-width="4"/>
<rect x="399.0" y="109.5" width="30" height="6" fill="#38bdf8" stroke="#0284c7" stroke-width="1"/>
<rect x="498.95" y="85.0" width="8" height="24" fill="#ffffff"/>
<path d="M 502.95 85.0 A 24 24 0 0 1 526.95 109.0 L 502.95 109.0 Z" fill="none" stroke="#94a3b8" stroke-width="1"/>
<text x="414.0" y="89.75" font-family="Space Grotesk, sans-serif" font-size="12" font-weight="700" fill="#0f172a" text-anchor="middle">COMPUTER SECTION</text>
<text x="414.0" y="105.75" font-family="Inter, sans-serif" font-size="8" fill="#64748b" text-anchor="middle">11.9m x 2.5m</text>
<rect x="75.0" y="95.25" width="180.0" height="37.5" fill="#ffffff" stroke="#334155" stroke-width="4"/>
<rect x="150.0" y="129.75" width="30" height="6" fill="#38bdf8" stroke="#0284c7" stroke-width="1"/>
<rect x="251.0" y="105.25" width="8" height="24" fill="#ffffff"/>
<path d="M 255.0 105.25 A 24 24 0 0 1 279.0 129.25 L 255.0 129.25 Z" fill="none" stroke="#94a3b8" stroke-width="1"/>
<text x="165.0" y="110.0" font-family="Space Grotesk, sans-serif" font-size="12" font-weight="700" fill="#0f172a" text-anchor="middle">DISCUSSION ROOM</text>
<text x="165.0" y="126.0" font-family="Inter, sans-serif" font-size="8" fill="#64748b" text-anchor="middle">12.0m x 2.5m</text>
<rect x="307.65" y="103.35" width="187.5" height="37.5" fill="#ffffff" stroke="#334155" stroke-width="4"/>
<rect x="386.4" y="137.85" width="30" height="6" fill="#38bdf8" stroke="#0284c7" stroke-width="1"/>
<rect x="491.15" y="113.35" width="8" height="24" fill="#ffffff"/>
<path d="M 495.15 113.35 A 24 24 0 0 1 519.15 137.35 L 495.15 137.35 Z" fill="none" stroke="#94a3b8" stroke-width="1"/>
<text x="401.4" y="118.1" font-family="Space Grotesk, sans-serif" font-size="12" font-weight="700" fill="#0f172a" text-anchor="middle">DISCUSSION ROOM 2</text>
<text x="401.4" y="134.1" font-family="Inter, sans-serif" font-size="8" fill="#64748b" text-anchor="middle">12.5m x 2.5m</text>
<rect x="75.0" y="200.25" width="176.54999999999998" height="37.5" fill="#ffffff" stroke="#334155" stroke-width="4"/>
<rect x="148.27499999999998" y="234.75" width="30" height="6" fill="#38bdf8" stroke="#0284c7" stroke-width="1"/>
<rect x="247.54999999999998" y="210.25" width="8" height="24" fill="#ffffff"/>
<path d="M 251.54999999999998 210.25 A 24 24 0 0 1 275.54999999999995 234.25 L 251.54999999999998 234.25 Z" fill="none" stroke="#94a3b8" stroke-width="1"/>
<text x="163.27499999999998" y="215.0" font-family="Space Grotesk, sans-serif" font-size="12" font-weight="700" fill="#0f172a" text-anchor="middle">LIBRARIAN OFFICE</text>
<text x="163.27499999999998" y="231.0" font-family="Inter, sans-serif" font-size="8" fill="#64748b" text-anchor="middle">11.8m x 2.5m</text>
<rect x="317.1" y="195.75" width="186.0" height="37.5" fill="#ffffff" stroke="#334155" stroke-width="4"/>
<rect x="395.1" y="230.25" width="30" height="6" fill="#38bdf8" stroke="#0284c7" stroke-width="1"/>
<rect x="499.1" y="205.75" width="8" height="24" fill="#ffffff"/>
<path d="M 503.1 205.75 A 24 24 0 0 1 527.1 229.75 L 503.1 229.75 Z" fill="none" stroke="#94a3b8" stroke-width="1"/>
<text x="410.1" y="210.5" font-family="Space Grotesk, sans-serif" font-size="12" font-weight="700" fill="#0f172a" text-anchor="middle">STORAGE</text>
<text x="410.1" y="226.5" font-family="Inter, sans-serif" font-size="8" fill="#64748b" text-anchor="middle">12.4m x 2.5m</text>
<rect x="75.0" y="292.20000000000005" width="187.79999999999998" height="37.5" fill="#eff6ff" stroke="#334155" stroke-width="4"/>
<rect x="153.89999999999998" y="326.70000000000005" width="30" height="6" fill="#38bdf8" stroke="#0284c7" stroke-width="1"/>
<rect x="258.79999999999995" y="302.20000000000005" width="8" height="24" fill="#ffffff"/>
<path d="M 262.79999999999995 302.20000000000005 A 24 24 0 0 1 286.79999999999995 326.20000000000005 L 262.79999999999995 326.20000000000005 Z" fill="none" stroke="#94a3b8" stroke-width="1"/>
<text x="168.89999999999998" y="306.95000000000005" font-family="Space Grotesk, sans-serif" font-size="12" font-weight="700" fill="#0f172a" text-anchor="middle">TOILET</text>
<text x="168.89999999999998" y="322.95000000000005" font-family="Inter, sans-serif" font-size="8" fill="#64748b" text-anchor="middle">12.5m x 2.5m</text>
<text x="75" y="45" font-family="Space Grotesk, sans-serif" font-weight="700" font-size="18" fill="#0f172a">2D ARCHITECTURAL BLUEPRINT - LIBRARY</text>
<text x="75" y="62" font-family="Inter, sans-serif" font-size="11" fill="#64748b">Boundary Dimensions: 30.0m × 20.0m | Scale: 1:100</text>
</svg>