<svg viewBox="0 0 650.0 490.0" width="100%" height="100%" xmlns="http://www.w3.org/2000/svg">
<rect width="650.0" height="490.0" fill="#f8fafc"/>
<defs>
  <pattern id="grid" width="16" height="16" patternUnits="userSpaceOnUse">
    <path d="M 16 0 L 0 0 0 16" fill="none" stroke="#e2e8f0" stroke-width="0.5"/>
  </pattern>
</defs>
<rect x="85" y="85" width="480.0" height="320.0" fill="url(#grid)"/>
<line x1="85.0" y1="60" x2="85.0" y2="415.0" stroke="#94a3b8" stroke-width="0.75" stroke-dasharray="4,3"/>
<circle cx="85.0" cy="50" r="10" fill="#ffffff" stroke="#475569" stroke-width="1.5"/>
<text x="85.0" y="54" font-family="Space Grotesk, sans-serif" font-size="10" font-weight="700" fill="#334155" text-anchor="middle">A</text>
<line x1="181.0" y1="60" x2="181.0" y2="415.0" stroke="#94a3b8" stroke-width="0.75" stroke-dasharray="4,3"/>
<circle cx="181.0" cy="50" r="10" fill="#ffffff" stroke="#475569" stroke-width="1.5"/>
<text x="181.0" y="54" font-family="Space Grotesk, sans-serif" font-size="10" font-weight="700" fill="#334155" text-anchor="middle">B</text>
<line x1="277.0" y1="60" x2="277.0" y2="415.0" stroke="#94a3b8" stroke-width="0.75" stroke-dasharray="4,3"/>
<circle cx="277.0" cy="50" r="10" fill="#ffffff" stroke="#475569" stroke-width="1.5"/>
<text x="277.0" y="54" font-family="Space Grotesk, sans-serif" font-size="10" font-weight="700" fill="#334155" text-anchor="middle">C</text>
<line x1="373.0" y1="60" x2="373.0" y2="415.0" stroke="#94a3b8" stroke-width="0.75" stroke-dasharray="4,3"/>
<circle cx="373.0" cy="50" r="10" fill="#ffffff" stroke="#475569" stroke-width="1.5"/>
<text x="373.0" y="54" font-family="Space Grotesk, sans-serif" font-size="10" font-weight="700" fill="#334155" text-anchor="middle">D</text>
<line x1="469.0" y1="60" x2="469.0" y2="415.0" stroke="#94a3b8" stroke-width="0.75" stroke-dasharray="4,3"/>
<circle cx="469.0" cy="50" r="10" fill="#ffffff" stroke="#475569" stroke-width="1.5"/>
<text x="469.0" y="54" font-family="Space Grotesk, sans-serif" font-size="10" font-weight="700" fill="#334155" text-anchor="middle">E</text>
<line x1="565.0" y1="60" x2="565.0" y2="415.0" stroke="#94a3b8" stroke-width="0.75" stroke-dasharray="4,3"/>
<circle cx="565.0" cy="50" r="10" fill="#ffffff" stroke="#475569" stroke-width="1.5"/>
<text x="565.0" y="54" font-family="Space Grotesk, sans-serif" font-size="10" font-weight="700" fill="#334155" text-anchor="middle">F</text>
<line x1="60" y1="85.0" x2="575.0" y2="85.0" stroke="#94a3b8" stroke-width="0.75" stroke-dasharray="4,3"/>
<circle cx="50" cy="85.0" r="10" fill="#ffffff" stroke="#475569" stroke-width="1.5"/>
<text x="50" y="89.0" font-family="Space Grotesk, sans-serif" font-size="10" font-weight="700" fill="#334155" text-anchor="middle">1</text>
<line x1="60" y1="191.66666666666669" x2="575.0" y2="191.66666666666669" stroke="#94a3b8" stroke-width="0.75" stroke-dasharray="4,3"/>
<circle cx="50" cy="191.66666666666669" r="10" fill="#ffffff" stroke="#475569" stroke-width="1.5"/>
<text x="50" y="195.66666666666669" font-family="Space Grotesk, sans-serif" font-size="10" font-weight="700" fill="#334155" text-anchor="middle">2</text>
<line x1="60" y1="298.33333333333337" x2="575.0" y2="298.33333333333337" stroke="#94a3b8" stroke-width="0.75" stroke-dasharray="4,3"/>
<circle cx="50" cy="298.33333333333337" r="10" fill="#ffffff" stroke="#475569" stroke-width="1.5"/>
<text x="50" y="302.33333333333337" font-family="Space Grotesk, sans-serif" font-size="10" font-weight="700" fill="#334155" text-anchor="middle">3</text>
<line x1="60" y1="405.0" x2="575.0" y2="405.0" stroke="#94a3b8" stroke-width="0.75" stroke-dasharray="4,3"/>
<circle cx="50" cy="405.0" r="10" fill="#ffffff" stroke="#475569" stroke-width="1.5"/>
<text x="50" y="409.0" font-family="Space Grotesk, sans-serif" font-size="10" font-weight="700" fill="#334155" text-anchor="middle">4</text>
<rect x="85" y="85" width="480.0" height="320.0" fill="none" stroke="#0f172a" stroke-width="10"/>
<rect x="85.0" y="339.88" width="40.0" height="65.12" fill="#f0f9ff" stroke="#0369a1" stroke-width="4"/>
<rect x="97.0" y="362.672" width="16.0" height="19.536" rx="2" fill="#ffffff" stroke="#94a3b8" stroke-width="1.5"/>
<circle cx="101.0" cy="358.672" r="3" fill="#cbd5e1"/>
<circle cx="109.0" cy="358.672" r="3" fill="#cbd5e1"/>
<circle cx="101.0" cy="386.20799999999997" r="3" fill="#cbd5e1"/>
<circle cx="109.0" cy="386.20799999999997" r="3" fill="#cbd5e1"/>
<rect x="89.0" y="402.0" width="32" height="6" fill="#38bdf8" stroke="#0284c7" stroke-width="1"/>
<rect x="121.0" y="351.88" width="8" height="24" fill="#ffffff"/>
<path d="M 125.0 351.88 A 24 24 0 0 1 149.0 375.88 L 125.0 375.88 Z" fill="none" stroke="#64748b" stroke-width="1.5" stroke-dasharray="2,2"/>
<text x="105.0" y="359.88" font-family="Space Grotesk, sans-serif" font-size="8" font-weight="700" fill="#0f172a" text-anchor="middle">READING HALL</text>
<text x="105.0" y="371.88" font-family="Inter, sans-serif" font-size="8.5" font-weight="600" fill="#475569" text-anchor="middle">2.5m × 4.1m (10.2 m²)</text>
<rect x="373.64" y="85.0" width="191.36" height="118.56" fill="#f0fdf4" stroke="#15803d" stroke-width="4"/>
<rect x="444.32" y="136.78" width="50" height="15" fill="#ffffff" stroke="#64748b" stroke-width="1.5"/>
<rect x="452.82" y="138.78" width="8" height="4" fill="#38bdf8"/>
<rect x="477.82" y="138.78" width="8" height="4" fill="#38bdf8"/>
<rect x="453.32" y="200.56" width="32" height="6" fill="#38bdf8" stroke="#0284c7" stroke-width="1"/>
<rect x="561.0" y="97.0" width="8" height="24" fill="#ffffff"/>
<path d="M 565.0 97.0 A 24 24 0 0 1 589.0 121.0 L 565.0 121.0 Z" fill="none" stroke="#64748b" stroke-width="1.5" stroke-dasharray="2,2"/>
<text x="469.32" y="105.0" font-family="Space Grotesk, sans-serif" font-size="12" font-weight="700" fill="#0f172a" text-anchor="middle">COMPUTER SECTION</text>
<text x="469.32" y="117.0" font-family="Inter, sans-serif" font-size="8.5" font-weight="600" fill="#475569" text-anchor="middle">12.0m × 7.4m (88.6 m²)</text>
<rect x="525.0" y="85.0" width="40.0" height="40.0" fill="#fef3c7" stroke="#d97706" stroke-width="4"/>
<rect x="537.0" y="99.0" width="16.0" height="12.0" rx="2" fill="#ffffff" stroke="#94a3b8" stroke-width="1.5"/>
<circle cx="541.0" cy="95.0" r="3" fill="#cbd5e1"/>
<circle cx="549.0" cy="95.0" r="3" fill="#cbd5e1"/>
<circle cx="541.0" cy="115.0" r="3" fill="#cbd5e1"/>
<circle cx="549.0" cy="115.0" r="3" fill="#cbd5e1"/>
<rect x="529.0" y="122.0" width="32" height="6" fill="#38bdf8" stroke="#0284c7" stroke-width="1"/>
<rect x="561.0" y="97.0" width="8" height="24" fill="#ffffff"/>
<path d="M 565.0 97.0 A 24 24 0 0 1 589.0 121.0 L 565.0 121.0 Z" fill="none" stroke="#64748b" stroke-width="1.5" stroke-dasharray="2,2"/>
<text x="545.0" y="105.0" font-family="Space Grotesk, sans-serif" font-size="8" font-weight="700" fill="#0f172a" text-anchor="middle">DISCUSSION ROOM</text>
<text x="545.0" y="117.0" font-family="Inter, sans-serif" font-size="8.5" font-weight="600" fill="#475569" text-anchor="middle">2.5m × 2.5m (6.2 m²)</text>
<rect x="85.0" y="85.0" width="480.0" height="320.0" fill="#fef3c7" stroke="#d97706" stroke-width="4"/>
<rect x="307.5" y="236.0" width="35" height="18" fill="#ffffff" stroke="#d97706" stroke-width="1.5"/>
<circle cx="325.0" cy="231.0" r="4" fill="#fcd34d"/>
<rect x="309.0" y="402.0" width="32" height="6" fill="#38bdf8" stroke="#0284c7" stroke-width="1"/>
<rect x="561.0" y="97.0" width="8" height="24" fill="#ffffff"/>
<path d="M 565.0 97.0 A 24 24 0 0 1 589.0 121.0 L 565.0 121.0 Z" fill="none" stroke="#64748b" stroke-width="1.5" stroke-dasharray="2,2"/>
<text x="325.0" y="105.0" font-family="Space Grotesk, sans-serif" font-size="12" font-weight="700" fill="#0f172a" text-anchor="middle">LIBRARIAN OFFICE</text>
<text x="325.0" y="117.0" font-family="Inter, sans-serif" font-size="8.5" font-weight="600" fill="#475569" text-anchor="middle">30.0m × 20.0m (600.0 m²)</text>
<rect x="85.0" y="228.2" width="40.0" height="176.8" fill="#f8fafc" stroke="#475569" stroke-width="4"/>
<rect x="89.0" y="402.0" width="32" height="6" fill="#38bdf8" stroke="#0284c7" stroke-width="1"/>
<rect x="121.0" y="240.2" width="8" height="24" fill="#ffffff"/>
<path d="M 125.0 240.2 A 24 24 0 0 1 149.0 264.2 L 125.0 264.2 Z" fill="none" stroke="#64748b" stroke-width="1.5" stroke-dasharray="2,2"/>
<text x="105.0" y="248.2" font-family="Space Grotesk, sans-serif" font-size="8" font-weight="700" fill="#0f172a" text-anchor="middle">STORAGE</text>
<text x="105.0" y="260.2" font-family="Inter, sans-serif" font-size="8.5" font-weight="600" fill="#475569" text-anchor="middle">2.5m × 11.1m (27.6 m²)</text>
<rect x="226.76" y="85.0" width="40.0" height="40.0" fill="#e0f2fe" stroke="#0284c7" stroke-width="4"/>
<rect x="234.76" y="93.0" width="10.0" height="10.0" rx="4" fill="#ffffff" stroke="#0284c7" stroke-width="1.5"/>
<circle cx="239.76" cy="98.0" r="4" fill="#bae6fd"/>
<rect x="230.76" y="122.0" width="32" height="6" fill="#38bdf8" stroke="#0284c7" stroke-width="1"/>
<rect x="262.76" y="97.0" width="8" height="24" fill="#ffffff"/>
<path d="M 266.76 97.0 A 24 24 0 0 1 290.76 121.0 L 266.76 121.0 Z" fill="none" stroke="#64748b" stroke-width="1.5" stroke-dasharray="2,2"/>
<text x="246.76" y="105.0" font-family="Space Grotesk, sans-serif" font-size="8" font-weight="700" fill="#0f172a" text-anchor="middle">TOILET</text>
<text x="246.76" y="117.0" font-family="Inter, sans-serif" font-size="8.5" font-weight="600" fill="#475569" text-anchor="middle">2.5m × 2.5m (6.2 m²)</text>
<text x="85" y="42" font-family="Space Grotesk, sans-serif" font-weight="700" font-size="18" fill="#0f172a">2D ARCHITECTURAL BLUEPRINT — LIBRARY</text>
<text x="85" y="60" font-family="Inter, sans-serif" font-size="11" fill="#475569">Perimeter Bounds: 30.0m × 20.0m | Total Area: 600.0 m² | Scale 1:100</text>
<g transform="translate(305.0, 28)">
  <rect width="260" height="30" rx="4" fill="#ffffff" stroke="#cbd5e1" stroke-width="1"/>
  <rect x="10" y="9" width="12" height="12" fill="#f0f9ff" stroke="#0369a1"/>
  <text x="26" y="19" font-family="sans-serif" font-size="8" fill="#334155">Primary</text>
  <rect x="70" y="9" width="12" height="12" fill="#fef3c7" stroke="#d97706"/>
  <text x="86" y="19" font-family="sans-serif" font-size="8" fill="#334155">Admin</text>
  <rect x="130" y="9" width="12" height="12" fill="#e0f2fe" stroke="#0284c7"/>
  <text x="146" y="19" font-family="sans-serif" font-size="8" fill="#334155">Wet Zone</text>
  <rect x="195" y="9" width="12" height="12" fill="#38bdf8"/>
  <text x="211" y="19" font-family="sans-serif" font-size="8" fill="#334155">Window</text>
</g>
</svg>