<svg viewBox="0 0 650.0 490.0" width="100%" height="100%" xmlns="http://www.w3.org/2000/svg">
<rect width="650.0" height="490.0" fill="#f8fafc"/>
<defs>
  <pattern id="grid" width="16" height="16" patternUnits="userSpaceOnUse">
    <path d="M 16 0 L 0 0 0 16" fill="none" stroke="#e2e8f0" stroke-width="0.5"/>
  </pattern>
</defs>
<rect x="85" y="85" width="480.0" height="320.0" fill="url(#grid)"/>
<line x1="85.0" y1="60" x2="85.0" y2="415.0" stroke="#94a3b8" stroke-width="0.75" stroke-dasharray="4,3"/>
<circle cx="85.0" cy="50" r="10" fill="#ffffff" stroke="#475569" stroke-width="1.5"/>
<text x="85.0" y="54" font-family="Space Grotesk, sans-serif" font-size="10" font-weight="700" fill="#334155" text-anchor="middle">A</text>
<line x1="181.0" y1="60" x2="181.0" y2="415.0" stroke="#94a3b8" stroke-width="0.75" stroke-dasharray="4,3"/>
<circle cx="181.0" cy="50" r="10" fill="#ffffff" stroke="#475569" stroke-width="1.5"/>
<text x="181.0" y="54" font-family="Space Grotesk, sans-serif" font-size="10" font-weight="700" fill="#334155" text-anchor="middle">B</text>
<line x1="277.0" y1="60" x2="277.0" y2="415.0" stroke="#94a3b8" stroke-width="0.75" stroke-dasharray="4,3"/>
<circle cx="277.0" cy="50" r="10" fill="#ffffff" stroke="#475569" stroke-width="1.5"/>
<text x="277.0" y="54" font-family="Space Grotesk, sans-serif" font-size="10" font-weight="700" fill="#334155" text-anchor="middle">C</text>
<line x1="373.0" y1="60" x2="373.0" y2="415.0" stroke="#94a3b8" stroke-width="0.75" stroke-dasharray="4,3"/>
<circle cx="373.0" cy="50" r="10" fill="#ffffff" stroke="#475569" stroke-width="1.5"/>
<text x="373.0" y="54" font-family="Space Grotesk, sans-serif" font-size="10" font-weight="700" fill="#334155" text-anchor="middle">D</text>
<line x1="469.0" y1="60" x2="469.0" y2="415.0" stroke="#94a3b8" stroke-width="0.75" stroke-dasharray="4,3"/>
<circle cx="469.0" cy="50" r="10" fill="#ffffff" stroke="#475569" stroke-width="1.5"/>
<text x="469.0" y="54" font-family="Space Grotesk, sans-serif" font-size="10" font-weight="700" fill="#334155" text-anchor="middle">E</text>
<line x1="565.0" y1="60" x2="565.0" y2="415.0" stroke="#94a3b8" stroke-width="0.75" stroke-dasharray="4,3"/>
<circle cx="565.0" cy="50" r="10" fill="#ffffff" stroke="#475569" stroke-width="1.5"/>
<text x="565.0" y="54" font-family="Space Grotesk, sans-serif" font-size="10" font-weight="700" fill="#334155" text-anchor="middle">F</text>
<line x1="60" y1="85.0" x2="575.0" y2="85.0" stroke="#94a3b8" stroke-width="0.75" stroke-dasharray="4,3"/>
<circle cx="50" cy="85.0" r="10" fill="#ffffff" stroke="#475569" stroke-width="1.5"/>
<text x="50" y="89.0" font-family="Space Grotesk, sans-serif" font-size="10" font-weight="700" fill="#334155" text-anchor="middle">1</text>
<line x1="60" y1="191.66666666666669" x2="575.0" y2="191.66666666666669" stroke="#94a3b8" stroke-width="0.75" stroke-dasharray="4,3"/>
<circle cx="50" cy="191.66666666666669" r="10" fill="#ffffff" stroke="#475569" stroke-width="1.5"/>
<text x="50" y="195.66666666666669" font-family="Space Grotesk, sans-serif" font-size="10" font-weight="700" fill="#334155" text-anchor="middle">2</text>
<line x1="60" y1="298.33333333333337" x2="575.0" y2="298.33333333333337" stroke="#94a3b8" stroke-width="0.75" stroke-dasharray="4,3"/>
<circle cx="50" cy="298.33333333333337" r="10" fill="#ffffff" stroke="#475569" stroke-width="1.5"/>
<text x="50" y="302.33333333333337" font-family="Space Grotesk, sans-serif" font-size="10" font-weight="700" fill="#334155" text-anchor="middle">3</text>
<line x1="60" y1="405.0" x2="575.0" y2="405.0" stroke="#94a3b8" stroke-width="0.75" stroke-dasharray="4,3"/>
<circle cx="50" cy="405.0" r="10" fill="#ffffff" stroke="#475569" stroke-width="1.5"/>
<text x="50" y="409.0" font-family="Space Grotesk, sans-serif" font-size="10" font-weight="700" fill="#334155" text-anchor="middle">4</text>
<rect x="85" y="85" width="480.0" height="320.0" fill="none" stroke="#0f172a" stroke-width="10"/>
<rect x="85.0" y="85.0" width="480.0" height="320.0" fill="#f0f9ff" stroke="#0369a1" stroke-width="4"/>
<rect x="305.0" y="235.0" width="40" height="20" rx="2" fill="#ffffff" stroke="#94a3b8" stroke-width="1.5"/>
<circle cx="315.0" cy="231.0" r="3" fill="#cbd5e1"/>
<circle cx="335.0" cy="231.0" r="3" fill="#cbd5e1"/>
<circle cx="315.0" cy="259.0" r="3" fill="#cbd5e1"/>
<circle cx="335.0" cy="259.0" r="3" fill="#cbd5e1"/>
<rect x="309.0" y="402.0" width="32" height="6" fill="#38bdf8" stroke="#0284c7" stroke-width="1"/>
<rect x="561.0" y="97.0" width="8" height="24" fill="#ffffff"/>
<path d="M 565.0 97.0 A 24 24 0 0 1 589.0 121.0 L 565.0 121.0 Z" fill="none" stroke="#64748b" stroke-width="1.5" stroke-dasharray="2,2"/>
<text x="325.0" y="105.0" font-family="Space Grotesk, sans-serif" font-size="12" font-weight="700" fill="#0f172a" text-anchor="middle">READING HALL</text>
<text x="325.0" y="117.0" font-family="Inter, sans-serif" font-size="8.5" font-weight="600" fill="#475569" text-anchor="middle">30.0m × 20.0m (600.0 m²)</text>
<rect x="525.0" y="134.92000000000002" width="40.0" height="270.08" fill="#f0fdf4" stroke="#15803d" stroke-width="4"/>
<rect x="535.0" y="262.46000000000004" width="20.0" height="15" fill="#ffffff" stroke="#64748b" stroke-width="1.5"/>
<rect x="536.0" y="264.46000000000004" width="8" height="4" fill="#38bdf8"/>
<rect x="546.0" y="264.46000000000004" width="8" height="4" fill="#38bdf8"/>
<rect x="529.0" y="402.0" width="32" height="6" fill="#38bdf8" stroke="#0284c7" stroke-width="1"/>
<rect x="561.0" y="146.92000000000002" width="8" height="24" fill="#ffffff"/>
<path d="M 565.0 146.92000000000002 A 24 24 0 0 1 589.0 170.92000000000002 L 565.0 170.92000000000002 Z" fill="none" stroke="#64748b" stroke-width="1.5" stroke-dasharray="2,2"/>
<text x="545.0" y="154.92000000000002" font-family="Space Grotesk, sans-serif" font-size="8" font-weight="700" fill="#0f172a" text-anchor="middle">COMPUTER SECTION</text>
<text x="545.0" y="166.92000000000002" font-family="Inter, sans-serif" font-size="8.5" font-weight="600" fill="#475569" text-anchor="middle">2.5m × 16.9m (42.2 m²)</text>
<rect x="247.56" y="108.52" width="40.0" height="296.48" fill="#fef3c7" stroke="#d97706" stroke-width="4"/>
<rect x="259.56" y="246.76" width="16.0" height="20" rx="2" fill="#ffffff" stroke="#94a3b8" stroke-width="1.5"/>
<circle cx="263.56" cy="242.76" r="3" fill="#cbd5e1"/>
<circle cx="271.56" cy="242.76" r="3" fill="#cbd5e1"/>
<circle cx="263.56" cy="270.76" r="3" fill="#cbd5e1"/>
<circle cx="271.56" cy="270.76" r="3" fill="#cbd5e1"/>
<rect x="251.56" y="402.0" width="32" height="6" fill="#38bdf8" stroke="#0284c7" stroke-width="1"/>
<rect x="283.56" y="120.52" width="8" height="24" fill="#ffffff"/>
<path d="M 287.56 120.52 A 24 24 0 0 1 311.56 144.51999999999998 L 287.56 144.51999999999998 Z" fill="none" stroke="#64748b" stroke-width="1.5" stroke-dasharray="2,2"/>
<text x="267.56" y="128.51999999999998" font-family="Space Grotesk, sans-serif" font-size="8" font-weight="700" fill="#0f172a" text-anchor="middle">DISCUSSION ROOM</text>
<text x="267.56" y="140.51999999999998" font-family="Inter, sans-serif" font-size="8.5" font-weight="600" fill="#475569" text-anchor="middle">2.5m × 18.5m (46.3 m²)</text>
<rect x="320.36" y="365.0" width="244.64" height="40.0" fill="#fef3c7" stroke="#d97706" stroke-width="4"/>
<rect x="425.18" y="380.0" width="35" height="10.0" fill="#ffffff" stroke="#d97706" stroke-width="1.5"/>
<circle cx="442.68" cy="375.0" r="4" fill="#fcd34d"/>
<rect x="426.68" y="402.0" width="32" height="6" fill="#38bdf8" stroke="#0284c7" stroke-width="1"/>
<rect x="561.0" y="377.0" width="8" height="24" fill="#ffffff"/>
<path d="M 565.0 377.0 A 24 24 0 0 1 589.0 401.0 L 565.0 401.0 Z" fill="none" stroke="#64748b" stroke-width="1.5" stroke-dasharray="2,2"/>
<text x="442.68" y="385.0" font-family="Space Grotesk, sans-serif" font-size="12" font-weight="700" fill="#0f172a" text-anchor="middle">LIBRARIAN OFFICE</text>
<text x="442.68" y="397.0" font-family="Inter, sans-serif" font-size="8.5" font-weight="600" fill="#475569" text-anchor="middle">15.3m × 2.5m (38.2 m²)</text>
<rect x="85.0" y="365.0" width="40.0" height="40.0" fill="#f8fafc" stroke="#475569" stroke-width="4"/>
<rect x="89.0" y="402.0" width="32" height="6" fill="#38bdf8" stroke="#0284c7" stroke-width="1"/>
<rect x="121.0" y="377.0" width="8" height="24" fill="#ffffff"/>
<path d="M 125.0 377.0 A 24 24 0 0 1 149.0 401.0 L 125.0 401.0 Z" fill="none" stroke="#64748b" stroke-width="1.5" stroke-dasharray="2,2"/>
<text x="105.0" y="385.0" font-family="Space Grotesk, sans-serif" font-size="8" font-weight="700" fill="#0f172a" text-anchor="middle">STORAGE</text>
<text x="105.0" y="397.0" font-family="Inter, sans-serif" font-size="8.5" font-weight="600" fill="#475569" text-anchor="middle">2.5m × 2.5m (6.2 m²)</text>
<rect x="85.0" y="91.4" width="480.0" height="313.6" fill="#e0f2fe" stroke="#0284c7" stroke-width="4"/>
<rect x="93.0" y="99.4" width="16" height="16" rx="4" fill="#ffffff" stroke="#0284c7" stroke-width="1.5"/>
<circle cx="101.0" cy="107.4" r="4" fill="#bae6fd"/>
<rect x="309.0" y="402.0" width="32" height="6" fill="#38bdf8" stroke="#0284c7" stroke-width="1"/>
<rect x="561.0" y="103.4" width="8" height="24" fill="#ffffff"/>
<path d="M 565.0 103.4 A 24 24 0 0 1 589.0 127.4 L 565.0 127.4 Z" fill="none" stroke="#64748b" stroke-width="1.5" stroke-dasharray="2,2"/>
<text x="325.0" y="111.4" font-family="Space Grotesk, sans-serif" font-size="12" font-weight="700" fill="#0f172a" text-anchor="middle">TOILET</text>
<text x="325.0" y="123.4" font-family="Inter, sans-serif" font-size="8.5" font-weight="600" fill="#475569" text-anchor="middle">30.0m × 19.6m (588.0 m²)</text>
<text x="85" y="42" font-family="Space Grotesk, sans-serif" font-weight="700" font-size="18" fill="#0f172a">2D ARCHITECTURAL BLUEPRINT — LIBRARY</text>
<text x="85" y="60" font-family="Inter, sans-serif" font-size="11" fill="#475569">Perimeter Bounds: 30.0m × 20.0m | Total Area: 600.0 m² | Scale 1:100</text>
<g transform="translate(305.0, 28)">
  <rect width="260" height="30" rx="4" fill="#ffffff" stroke="#cbd5e1" stroke-width="1"/>
  <rect x="10" y="9" width="12" height="12" fill="#f0f9ff" stroke="#0369a1"/>
  <text x="26" y="19" font-family="sans-serif" font-size="8" fill="#334155">Primary</text>
  <rect x="70" y="9" width="12" height="12" fill="#fef3c7" stroke="#d97706"/>
  <text x="86" y="19" font-family="sans-serif" font-size="8" fill="#334155">Admin</text>
  <rect x="130" y="9" width="12" height="12" fill="#e0f2fe" stroke="#0284c7"/>
  <text x="146" y="19" font-family="sans-serif" font-size="8" fill="#334155">Wet Zone</text>
  <rect x="195" y="9" width="12" height="12" fill="#38bdf8"/>
  <text x="211" y="19" font-family="sans-serif" font-size="8" fill="#334155">Window</text>
</g>
</svg>