<svg viewBox="0 0 600.0 450.0" width="100%" height="100%" xmlns="http://www.w3.org/2000/svg">
<defs>
  <pattern id="grid" width="15" height="15" patternUnits="userSpaceOnUse">
    <path d="M 15 0 L 0 0 0 15" fill="none" stroke="#e2e8f0" stroke-width="0.5"/>
  </pattern>
</defs>
<rect width="600.0" height="450.0" fill="#f8fafc"/>
<rect x="75" y="75" width="450.0" height="300.0" fill="url(#grid)"/>
<rect x="75" y="75" width="450.0" height="300.0" fill="none" stroke="#0f172a" stroke-width="8"/>
<rect x="75.0" y="75.0" width="37.5" height="37.5" fill="#ffffff" stroke="#334155" stroke-width="4"/>
<rect x="78.75" y="109.5" width="30" height="6" fill="#38bdf8" stroke="#0284c7" stroke-width="1"/>
<rect x="108.5" y="85.0" width="8" height="24" fill="#ffffff"/>
<path d="M 112.5 85.0 A 24 24 0 0 1 136.5 109.0 L 112.5 109.0 Z" fill="none" stroke="#94a3b8" stroke-width="1"/>
<text x="93.75" y="89.75" font-family="Space Grotesk, sans-serif" font-size="7" font-weight="700" fill="#0f172a" text-anchor="middle">LIVING ROOM</text>
<text x="93.75" y="100.75" font-family="Inter, sans-serif" font-size="8" fill="#64748b" text-anchor="middle">2.5m x 2.5m</text>
<rect x="76.35" y="75.0" width="37.5" height="37.5" fill="#ffffff" stroke="#334155" stroke-width="4"/>
<rect x="80.1" y="109.5" width="30" height="6" fill="#38bdf8" stroke="#0284c7" stroke-width="1"/>
<rect x="109.85" y="85.0" width="8" height="24" fill="#ffffff"/>
<path d="M 113.85 85.0 A 24 24 0 0 1 137.85 109.0 L 113.85 109.0 Z" fill="none" stroke="#94a3b8" stroke-width="1"/>
<text x="95.1" y="89.75" font-family="Space Grotesk, sans-serif" font-size="7" font-weight="700" fill="#0f172a" text-anchor="middle">OFFICE</text>
<text x="95.1" y="100.75" font-family="Inter, sans-serif" font-size="8" fill="#64748b" text-anchor="middle">2.5m x 2.5m</text>
<rect x="75.0" y="75.6" width="449.84999999999997" height="37.5" fill="#ffffff" stroke="#334155" stroke-width="4"/>
<rect x="284.92499999999995" y="110.1" width="30" height="6" fill="#38bdf8" stroke="#0284c7" stroke-width="1"/>
<rect x="520.8499999999999" y="85.6" width="8" height="24" fill="#ffffff"/>
<path d="M 524.8499999999999 85.6 A 24 24 0 0 1 548.8499999999999 109.6 L 524.8499999999999 109.6 Z" fill="none" stroke="#94a3b8" stroke-width="1"/>
<text x="299.92499999999995" y="90.35" font-family="Space Grotesk, sans-serif" font-size="12" font-weight="700" fill="#0f172a" text-anchor="middle">OFFICE</text>
<text x="299.92499999999995" y="106.35" font-family="Inter, sans-serif" font-size="8" fill="#64748b" text-anchor="middle">30.0m x 2.5m</text>
<rect x="75.15" y="79.95" width="37.5" height="37.5" fill="#ffffff" stroke="#334155" stroke-width="4"/>
<rect x="78.9" y="114.45" width="30" height="6" fill="#38bdf8" stroke="#0284c7" stroke-width="1"/>
<rect x="108.65" y="89.95" width="8" height="24" fill="#ffffff"/>
<path d="M 112.65 89.95 A 24 24 0 0 1 136.65 113.95 L 112.65 113.95 Z" fill="none" stroke="#94a3b8" stroke-width="1"/>
<text x="93.9" y="94.7" font-family="Space Grotesk, sans-serif" font-size="7" font-weight="700" fill="#0f172a" text-anchor="middle">OFFICE</text>
<text x="93.9" y="105.7" font-family="Inter, sans-serif" font-size="8" fill="#64748b" text-anchor="middle">2.5m x 2.5m</text>
<rect x="75.0" y="75.3" width="37.5" height="299.7" fill="#ffffff" stroke="#334155" stroke-width="4"/>
<rect x="78.75" y="372.0" width="30" height="6" fill="#38bdf8" stroke="#0284c7" stroke-width="1"/>
<rect x="108.5" y="85.3" width="8" height="24" fill="#ffffff"/>
<path d="M 112.5 85.3 A 24 24 0 0 1 136.5 109.3 L 112.5 109.3 Z" fill="none" stroke="#94a3b8" stroke-width="1"/>
<text x="93.75" y="221.14999999999998" font-family="Space Grotesk, sans-serif" font-size="7" font-weight="700" fill="#0f172a" text-anchor="middle">OFFICE</text>
<text x="93.75" y="232.14999999999998" font-family="Inter, sans-serif" font-size="8" fill="#64748b" text-anchor="middle">2.5m x 20.0m</text>
<rect x="75.0" y="76.5" width="449.7" height="298.5" fill="#ffffff" stroke="#334155" stroke-width="4"/>
<rect x="284.85" y="372.0" width="30" height="6" fill="#38bdf8" stroke="#0284c7" stroke-width="1"/>
<rect x="520.7" y="86.5" width="8" height="24" fill="#ffffff"/>
<path d="M 524.7 86.5 A 24 24 0 0 1 548.7 110.5 L 524.7 110.5 Z" fill="none" stroke="#94a3b8" stroke-width="1"/>
<text x="299.85" y="221.75" font-family="Space Grotesk, sans-serif" font-size="12" font-weight="700" fill="#0f172a" text-anchor="middle">OFFICE</text>
<text x="299.85" y="237.75" font-family="Inter, sans-serif" font-size="8" fill="#64748b" text-anchor="middle">30.0m x 19.9m</text>
<rect x="75.0" y="75.0" width="449.84999999999997" height="37.5" fill="#ffffff" stroke="#334155" stroke-width="4"/>
<rect x="284.92499999999995" y="109.5" width="30" height="6" fill="#38bdf8" stroke="#0284c7" stroke-width="1"/>
<rect x="520.8499999999999" y="85.0" width="8" height="24" fill="#ffffff"/>
<path d="M 524.8499999999999 85.0 A 24 24 0 0 1 548.8499999999999 109.0 L 524.8499999999999 109.0 Z" fill="none" stroke="#94a3b8" stroke-width="1"/>
<text x="299.92499999999995" y="89.75" font-family="Space Grotesk, sans-serif" font-size="12" font-weight="700" fill="#0f172a" text-anchor="middle">OFFICE</text>
<text x="299.92499999999995" y="105.75" font-family="Inter, sans-serif" font-size="8" fill="#64748b" text-anchor="middle">30.0m x 2.5m</text>
<rect x="75.15" y="337.5" width="37.5" height="37.5" fill="#ffffff" stroke="#334155" stroke-width="4"/>
<rect x="78.9" y="372.0" width="30" height="6" fill="#38bdf8" stroke="#0284c7" stroke-width="1"/>
<rect x="108.65" y="347.5" width="8" height="24" fill="#ffffff"/>
<path d="M 112.65 347.5 A 24 24 0 0 1 136.65 371.5 L 112.65 371.5 Z" fill="none" stroke="#94a3b8" stroke-width="1"/>
<text x="93.9" y="352.25" font-family="Space Grotesk, sans-serif" font-size="7" font-weight="700" fill="#0f172a" text-anchor="middle">OFFICE</text>
<text x="93.9" y="363.25" font-family="Inter, sans-serif" font-size="8" fill="#64748b" text-anchor="middle">2.5m x 2.5m</text>
<text x="75" y="45" font-family="Space Grotesk, sans-serif" font-weight="700" font-size="18" fill="#0f172a">2D ARCHITECTURAL BLUEPRINT - LIBRARY</text>
<text x="75" y="62" font-family="Inter, sans-serif" font-size="11" fill="#64748b">Boundary Dimensions: 30.0m × 20.0m | Scale: 1:100</text>
</svg>